PathFileType	4	(X/Y/Z)	Walking07.trc	
DataRate	CameraRate	NumFrames	NumMarkers	Units	OrigDataRate	OrigDataStartFrame	OrigNumFrames	
100.00	100.00	10	19	mm	100.00	412	98	
Frame#	Time	RPSI			LPSI			RASI			LASI			RTHI			RKNE			RHFB			RTUB			RSHN			RANK			RLCA			RSTL			RPCA			RCPG			RHEE			RP5M			RP1M			RD5M			RTOE			
		X1	Y1	Z1	X2	Y2	Z2	X3	Y3	Z3	X4	Y4	Z4	X5	Y5	Z5	X6	Y6	Z6	X7	Y7	Z7	X8	Y8	Z8	X9	Y9	Z9	X10	Y10	Z10	X11	Y11	Z11	X12	Y12	Z12	X13	Y13	Z13	X14	Y14	Z14	X15	Y15	Z15	X16	Y16	Z16	X17	Y17	Z17	X18	Y18	Z18	X19	Y19	Z19	

74	0.730	297.09158	925.14105	130.00943	293.58762	934.10797	35.91320	487.85233	878.72809	199.85504	489.10672	881.77271	-34.97166	463.67572	582.27606	266.66861	506.00266	450.78296	263.25494	492.88364	416.38062	263.18561	549.52112	384.36359	216.75209	496.17993	325.07892	199.51964	268.07474	181.78212	196.65469	246.18430	169.62167	186.87796	263.17831	162.76038	124.00449	246.57143	202.12857	150.55701	219.80547	207.13316	144.46181	217.53172	173.36781	140.92667	300.30795	90.49940	222.97198	351.52512	112.36518	148.60594	323.39453	69.59840	232.77359	365.47598	67.27517	200.47658 
75	0.740	310.61093	926.88831	130.89090	307.13422	935.67560	36.75917	502.07095	880.81958	198.83180	502.27451	882.90979	-36.01556	482.75595	584.61218	265.93323	528.21002	453.64304	261.37488	516.50537	418.00409	261.32233	574.05151	389.13144	214.18634	524.02014	327.25787	197.21259	304.82013	170.85602	197.11638	283.53220	157.56021	187.64847	300.64053	151.50865	124.80220	281.40433	189.76013	151.29849	254.38834	192.96187	145.66484	253.96597	158.97180	142.05460	341.77713	81.90443	223.75859	391.84225	106.11929	149.72125	367.87833	63.46621	233.35841	409.56299	63.32417	200.71252 
76	0.750	323.79669	928.21887	131.89828	320.65222	936.87775	37.78288	516.15436	882.58350	198.13417	515.27112	883.54047	-37.00900	501.28186	586.60608	264.94974	549.80310	456.21097	259.15796	539.48804	419.45340	259.14874	597.88348	393.57111	211.33276	551.37823	329.13306	194.87402	342.86539	159.52432	197.55022	321.69766	145.30846	188.30005	339.35101	139.96425	125.74036	317.42413	176.72687	152.08838	289.07538	177.67418	147.06764	291.53287	144.41559	143.14404	384.58865	73.74773	224.89253	435.04535	103.25994	152.73323	412.85806	57.09389	233.96420	454.06885	59.52712	200.72162 
77	0.760	337.22485	929.15375	132.97900	334.09113	937.81317	38.84989	530.19824	884.07068	197.60213	528.03577	883.46271	-37.91835	519.57013	588.28430	263.97119	570.65918	458.37982	256.58719	561.89337	420.74445	256.63840	621.00568	397.70367	208.44128	578.36102	330.74475	192.55055	381.47342	148.11346	198.52594	360.90817	132.52177	189.38893	378.41302	127.63985	126.67410	354.41638	163.31755	153.02394	325.20581	161.73351	148.01949	330.70004	129.18779	144.52542	428.90311	65.68813	225.62039	476.23431	98.15583	153.07445	458.33783	50.79012	234.38820	499.08835	56.49921	200.38548 
78	0.770	351.28033	929.64612	134.05328	347.45770	938.34662	40.00897	544.29303	885.12976	197.24741	540.52454	882.66339	-38.55980	537.65662	589.59479	262.79901	590.89801	460.18698	253.86716	584.57739	421.84540	253.81607	643.22900	401.54791	205.29018	604.76031	332.15768	190.18561	420.74399	136.68504	199.67323	401.28598	119.24159	190.86972	417.86191	115.83041	127.88002	392.70963	149.70189	153.85208	363.10550	146.11870	149.21442	370.25357	114.18644	146.22505	474.13699	58.02792	226.17245	518.20679	93.55003	152.56001	504.54532	45.31993	234.82382	544.30139	54.11301	199.76935 
79	0.780	365.13232	929.59723	135.30740	360.84900	938.38599	41.29886	558.35840	885.74921	197.16879	552.92322	881.25525	-39.01179	555.42944	590.32349	261.45807	610.40308	461.48831	250.76160	606.74792	422.77188	250.80025	664.58881	404.93262	201.81418	630.64044	333.42062	187.72523	447.45908	129.10545	200.24280	442.44922	107.07258	191.98077	458.04401	104.25398	129.11246	431.63165	136.32832	154.73241	402.28403	130.92496	150.36383	410.70773	99.62812	148.23373	520.06458	51.16870	226.73126	560.62006	89.22491	152.31772	551.25189	40.88340	235.42867	589.30542	51.64019	200.08295 
80	0.790	378.92563	929.01874	136.67467	374.27008	937.98590	42.75754	572.41467	885.92230	197.26830	565.52142	879.67090	-39.22081	572.90411	590.54236	259.87231	629.20349	462.18140	247.57210	625.70764	423.05649	247.79272	684.89771	407.79773	198.05325	655.82062	334.52747	185.11348				484.59692	96.26752	192.62680	499.46393	93.05692	130.29286	471.44882	123.40221	155.66977	442.60489	116.45768	151.65627	454.15057	84.84253	149.18402	566.59271	45.65737	227.81657	603.39734	85.58870	152.20210	598.29169	37.12059	235.72626	635.02441	51.42587	201.05717 
81	0.800	392.71649	927.99005	138.04930	387.63837	937.13232	44.31317	586.54846	885.64252	197.42978	578.54376	878.15894	-39.20318	589.96216	590.22650	258.06189	647.12262	462.21106	244.14713	644.93988	422.53760	244.19504	704.16626	410.13974	194.02600	680.32214	335.57458	182.32254	557.34766	102.08475	201.45113	527.40253	85.24178	193.69826	541.71100	82.68408	131.35951	511.97040	111.13366	156.55013	483.38443	101.93000	153.54781	497.06537	71.56049	151.01353	613.43457	41.13642	228.88635	646.38971	82.99096	152.37901	646.38403	34.76611	235.59914	680.64966	50.98178	200.92613 
82	0.810	406.61530	926.49939	139.48723	401.02975	935.81378	45.93620	600.81958	884.83331	197.74895	590.94916	875.92090	-38.41975	606.63824	589.30933	256.11206	663.76385	461.76617	240.48674	663.36212	421.60217	240.49101	722.66650	411.74734	189.77905	704.16364	336.38574	179.05577	588.89233	96.03918	202.26959	570.74603	74.57635	194.81680	584.55273	73.61790	132.15012	553.23236	99.77179	157.26787	525.04645	88.16346	154.96724	540.22528	59.60310	153.05022	660.19513	37.16950	228.66685	689.24225	81.68282	152.86160	693.87964	33.54103	235.59686	727.44745	52.18232	200.21605 
83	0.820	420.65015	924.61322	141.01270	414.49164	934.14697	47.65741	615.25024	883.62860	198.11679	602.42834	873.03558	-37.04804	622.74939	587.89923	254.18863	679.36169	460.78003	236.86618	681.03253	420.02237	236.84377	740.43500	412.53659	185.30667	727.15973	336.99896	175.59947	628.39490	89.49409	202.52071	614.50867	65.97209	195.52602	627.84296	65.89415	132.68042	594.55157	89.90218	158.11024	567.52283	76.13849	156.03506	584.63556	49.19448	153.93509	706.85144	35.09586	228.58574	731.37048	80.75234	152.55617	740.24689	34.46774	235.68507	771.99268	55.25010	200.45125 
